<?xml version="1.0" encoding="UTF-8"?>
<!DOCTYPE svg PUBLIC "-//W3C//DTD SVG 1.1//EN" "http://www.w3.org/Graphics/SVG/1.1/DTD/svg11.dtd">
<!-- Creator: CorelDRAW -->
<svg xmlns="http://www.w3.org/2000/svg" xml:space="preserve" width="9.8373in" height="3.1647in" version="1.1" style="shape-rendering:geometricPrecision; text-rendering:geometricPrecision; image-rendering:optimizeQuality; fill-rule:evenodd; clip-rule:evenodd"
viewBox="0 0 9389.49 3020.64"
 xmlns:xlink="http://www.w3.org/1999/xlink"
 xmlns:xodm="http://www.corel.com/coreldraw/odm/2003">
 <defs>
  <style type="text/css">
   <![CDATA[
    .fil3 {fill:none}
    .fil0 {fill:#FEFEFE}
    .fil1 {fill:#C81D25}
    .fil2 {fill:#FB4446}
   ]]>
  </style>
    <clipPath id="id0">
     <path d="M4505.1 964.49c7.5,-8.89 0.7,-2.7 9.98,-9.95 50.65,-39.56 55.86,-49.45 104.16,-97.57 18.9,-18.83 89.53,-95.67 109.14,-102.52l0.04 691.91c-4.19,140.59 236.8,237.18 333.52,65.68 28.17,-49.95 21.95,-108.86 21.95,-170.64 -0.01,-255.76 0,-511.52 0,-767.28 0,-103.07 19.7,-282.08 -31.67,-356.69 -54.42,-79.03 -162.79,-107.13 -261.28,-37.57 -29.52,20.85 -71.43,68.42 -99.45,96.36l-284.36 284.39 -236.72 -234.08c-88.64,-88.57 -168.78,-200.26 -283.52,-185.29 -66.93,8.73 -116.63,53.34 -139.86,99.37 -28.57,56.59 -18.56,145.67 -18.56,213.8l-0.04 941.48c-0.2,177.47 140.37,240.65 251.65,193.17 131.56,-56.13 108.12,-205.97 108.12,-367.38 0,-91.48 -4.52,-399.15 1.02,-465.03 28.48,22.75 58.05,55.82 85.16,82.88 56.66,56.55 124.47,140.69 195.01,153.93 45.16,8.48 110.24,-1.18 135.72,-28.97z"/>
    </clipPath>
      <mask id="id1">
  <linearGradient id="id2" gradientUnits="userSpaceOnUse" x1="4088.18" y1="638.79" x2="4088.19" y2="1220.33">
   <stop offset="0" style="stop-opacity:1; stop-color:white"/>
   <stop offset="1" style="stop-opacity:0; stop-color:white"/>
  </linearGradient>
       <rect style="fill:url(#id2)" x="3725.11" y="136.57" width="366.38" height="1087.08"/>
      </mask>
      <mask id="id3">
  <linearGradient id="id4" gradientUnits="userSpaceOnUse" x1="4233.54" y1="900.73" x2="3957.41" y2="624.91">
   <stop offset="0" style="stop-opacity:1; stop-color:white"/>
   <stop offset="1" style="stop-opacity:0; stop-color:white"/>
  </linearGradient>
       <rect style="fill:url(#id4)" x="3631.99" y="45.72" width="958.82" height="953.09"/>
      </mask>
      <mask id="id5">
  <linearGradient id="id6" gradientUnits="userSpaceOnUse" x1="4988.54" y1="492.22" x2="4671.6" y2="803.16">
   <stop offset="0" style="stop-opacity:1; stop-color:white"/>
   <stop offset="1" style="stop-opacity:0; stop-color:white"/>
  </linearGradient>
       <rect style="fill:url(#id6)" x="4133.75" y="135" width="952.77" height="959.14"/>
      </mask>
      <mask id="id7">
  <linearGradient id="id8" gradientUnits="userSpaceOnUse" x1="5083.88" y1="1105.39" x2="5083.89" y2="523.85">
   <stop offset="0" style="stop-opacity:1; stop-color:white"/>
   <stop offset="1" style="stop-opacity:0; stop-color:white"/>
  </linearGradient>
       <rect style="fill:url(#id8)" x="4720.81" y="520.54" width="366.38" height="1087.08"/>
      </mask>
    <clipPath id="id9">
     <path d="M7480.78 1092.55c9.53,65.33 1.16,79.64 -39.48,105.12 -32.02,20.07 -62.89,33.68 -101.78,45.35 -81.44,24.44 -180.34,13.24 -252.37,-18.62 -315.87,-139.74 -302.74,-572.43 -1.78,-703.76 234.83,-102.47 374.7,53.34 450.72,65.45 94.72,15.08 165.34,-44.3 192.79,-102.11 107.86,-227.11 -277.58,-358.2 -492.24,-355.85 -513.83,5.61 -855.46,508.85 -697.86,980.7 53.44,160 143.22,263.36 239.57,342.82 242.78,200.21 593.05,223.84 877,36.33 47.95,-31.66 120.79,-97.38 149.7,-144.36 47.07,-76.52 36.43,-160.76 36.43,-257.99 0,-85.91 15.1,-200.17 -27.24,-267.23 -42.96,-68.05 -95.62,-86.53 -201.97,-86.38 -94.36,0.14 -201.11,-4.76 -293.88,0.36 -180.95,9.98 -236.5,230.5 -96.18,329.77 63.21,44.72 172.99,30.4 258.57,30.4z"/>
    </clipPath>
      <mask id="id10">
  <linearGradient id="id11" gradientUnits="userSpaceOnUse" x1="7448.73" y1="550.71" x2="7174.28" y2="478.89">
   <stop offset="0" style="stop-opacity:1; stop-color:white"/>
   <stop offset="1" style="stop-opacity:0; stop-color:white"/>
  </linearGradient>
       <rect style="fill:url(#id11)" x="6339.34" y="-391.22" width="1435.87" height="1028.77"/>
      </mask>
      <mask id="id12">
  <linearGradient id="id13" gradientUnits="userSpaceOnUse" x1="7318.39" y1="732.39" x2="7480.68" y2="732.37">
   <stop offset="0" style="stop-opacity:1; stop-color:white"/>
   <stop offset="1" style="stop-opacity:0; stop-color:white"/>
  </linearGradient>
       <rect style="fill:url(#id13)" x="7135.2" y="729.08" width="1087.08" height="366.38"/>
      </mask>
      <mask id="id14">
  <linearGradient id="id15" gradientUnits="userSpaceOnUse" x1="7843.49" y1="926.15" x2="7842.95" y2="1179.98">
   <stop offset="0" style="stop-opacity:1; stop-color:white"/>
   <stop offset="1" style="stop-opacity:0; stop-color:white"/>
  </linearGradient>
       <rect style="fill:url(#id15)" x="7479.89" y="730.18" width="366.38" height="1087.08"/>
      </mask>
      <mask id="id16">
  <linearGradient id="id17" gradientUnits="userSpaceOnUse" x1="6859.82" y1="909.96" x2="7151.56" y2="1392.56">
   <stop offset="0" style="stop-opacity:1; stop-color:white"/>
   <stop offset="1" style="stop-opacity:0; stop-color:white"/>
  </linearGradient>
       <rect style="fill:url(#id17)" x="6496.76" y="726.77" width="1027.35" height="1087.08"/>
      </mask>
    <clipPath id="id18">
     <path d="M5860.58 748.24c11.12,11.13 113.42,227.8 121.52,255.61l-239.54 -2.31 118.01 -253.3zm282.44 616.08c39.25,16.48 49.83,157.03 140.2,212.49 97.15,59.61 205.04,12.94 248.9,-53.13 60.88,-91.72 2.19,-188.28 -36.1,-268.52 -37.41,-78.38 -72.82,-157.79 -110.55,-237.81 -105.44,-223.6 -237.3,-499.14 -336.52,-724.64 -35.89,-81.57 -83.12,-158.24 -193.89,-152.78 -51.29,2.53 -100.86,31.87 -123.11,55.75 -41.36,44.41 -241.96,503.54 -286.51,595.04 -73.9,151.77 -149.58,330.81 -222.99,479.13 -39.36,79.51 -87.21,169.74 -26.76,257.06 45.3,65.42 154.6,109.28 250.36,48.01 84.51,-54.07 102.28,-203.89 136.48,-210.59l560.49 0z"/>
    </clipPath>
      <mask id="id19">
  <linearGradient id="id20" gradientUnits="userSpaceOnUse" x1="5955.2" y1="565.48" x2="5734.97" y2="997.67">
   <stop offset="0" style="stop-opacity:1; stop-color:white"/>
   <stop offset="1" style="stop-opacity:0; stop-color:white"/>
  </linearGradient>
       <rect style="fill:url(#id20)" x="5219.12" y="136.26" width="825.86" height="1287.04"/>
      </mask>
      <mask id="id21">
  <linearGradient id="id22" gradientUnits="userSpaceOnUse" x1="6065.2" y1="1160.56" x2="5855.77" y2="747.64">
   <stop offset="0" style="stop-opacity:1; stop-color:white"/>
   <stop offset="1" style="stop-opacity:0; stop-color:white"/>
  </linearGradient>
       <rect style="fill:url(#id22)" x="5738.38" y="329.06" width="825.86" height="1287.04"/>
      </mask>
      <mask id="id23">
  <linearGradient id="id24" gradientUnits="userSpaceOnUse" x1="5637.41" y1="1004.56" x2="5963.38" y2="1004.55">
   <stop offset="0" style="stop-opacity:1; stop-color:white"/>
   <stop offset="1" style="stop-opacity:0; stop-color:white"/>
  </linearGradient>
       <rect style="fill:url(#id24)" x="5390.72" y="1001.25" width="1087.07" height="366.38"/>
      </mask>
    <clipPath id="id25">
     <path d="M3555.1 459.85c23.33,-79.98 -21.1,-148.91 -58.49,-188.63 -136.66,-145.15 -416.95,-174.62 -591.36,-116.08 -373.21,125.28 -436.63,573.42 -156.08,760.03 220.21,146.48 502.27,112.06 517.75,243.28 9.03,76.5 -84.28,93.26 -154.75,97.3 -239.65,13.75 -255.54,-133.69 -403.73,-94.44 -63.3,16.76 -109.09,61.05 -127.07,123.07 -41.46,143 110.78,245.36 210.99,284.03 128.07,49.42 306.88,59.1 450.33,33.95 444.32,-77.9 544.63,-658.46 75.04,-836.76 -129.98,-49.35 -313.2,-59.02 -372.28,-133.81 -22.95,-29.06 -13.8,-73.88 6.49,-98 55.13,-65.52 200.26,-58.68 288.41,-6.35 52.93,31.42 94.81,79.78 186.35,56.3 63.95,-16.4 110.24,-61.7 128.39,-123.9z"/>
    </clipPath>
       <mask id="id26">
  <linearGradient id="id27" gradientUnits="userSpaceOnUse" x1="3302.56" y1="558.7" x2="3028.11" y2="486.89">
   <stop offset="0" style="stop-opacity:1; stop-color:white"/>
   <stop offset="1" style="stop-opacity:0; stop-color:white"/>
  </linearGradient>
        <rect style="fill:url(#id27)" x="2193.17" y="-383.22" width="1435.87" height="1028.77"/>
       </mask>
       <mask id="id28">
  <linearGradient id="id29" gradientUnits="userSpaceOnUse" x1="2897.9" y1="1183.93" x2="3172.35" y2="1255.75">
   <stop offset="0" style="stop-opacity:1; stop-color:white"/>
   <stop offset="1" style="stop-opacity:0; stop-color:white"/>
  </linearGradient>
        <rect style="fill:url(#id29)" x="2571.41" y="1097.08" width="1435.87" height="1028.78"/>
       </mask>
      <mask id="id30">
  <linearGradient id="id31" gradientUnits="userSpaceOnUse" x1="3064.09" y1="1036.58" x2="3275.81" y2="1090.83">
   <stop offset="0" style="stop-opacity:1; stop-color:white"/>
   <stop offset="1" style="stop-opacity:0; stop-color:white"/>
  </linearGradient>
       <rect style="fill:url(#id31)" x="2937.75" y="711.09" width="1004.59" height="532.19"/>
      </mask>
    <clipPath id="id32">
     <path d="M1181.48 173.64c-80.8,-57.2 -193.71,-37.88 -250.91,42.93l-238.63 337.13 -238.63 -337.13c-57.19,-80.8 -170.1,-100.12 -250.91,-42.93 -80.81,57.2 -100.12,170.1 -42.93,250.91l352.09 497.42 0 502.34c0,99 81,180 180,180 99,0 180,-81 180,-180l0 -501.28 352.84 -498.48c57.2,-80.81 37.88,-193.71 -42.93,-250.91z"/>
    </clipPath>
      <mask id="id33">
  <linearGradient id="id34" gradientUnits="userSpaceOnUse" x1="1224.4" y1="424.55" x2="969.55" y2="784.17">
   <stop offset="0" style="stop-opacity:1; stop-color:white"/>
   <stop offset="1" style="stop-opacity:0; stop-color:white"/>
  </linearGradient>
       <rect style="fill:url(#id34)" x="412.45" y="129.7" width="853.44" height="1025.31"/>
      </mask>
      <mask id="id35">
  <linearGradient id="id36" gradientUnits="userSpaceOnUse" x1="871.56" y1="1369.05" x2="871.57" y2="1035.57">
   <stop offset="0" style="stop-opacity:1; stop-color:white"/>
   <stop offset="1" style="stop-opacity:0; stop-color:white"/>
  </linearGradient>
       <rect style="fill:url(#id36)" x="508.49" y="520.54" width="366.38" height="1087.08"/>
      </mask>
      <mask id="id37">
  <linearGradient id="id38" gradientUnits="userSpaceOnUse" x1="475.89" y1="871.57" x2="236.97" y2="534.02">
   <stop offset="0" style="stop-opacity:1; stop-color:white"/>
   <stop offset="1" style="stop-opacity:0; stop-color:white"/>
  </linearGradient>
       <rect style="fill:url(#id38)" x="-10.33" y="-22.26" width="853.44" height="1025.31"/>
      </mask>
    <clipPath id="id39">
     <path d="M8565.09 748.24c11.12,11.13 113.42,227.8 121.52,255.61l-239.53 -2.31 118.01 -253.3zm282.44 616.08c39.24,16.48 49.82,157.03 140.2,212.49 97.15,59.61 205.04,12.94 248.89,-53.13 60.88,-91.72 2.19,-188.28 -36.1,-268.52 -37.41,-78.38 -72.82,-157.79 -110.55,-237.81 -105.44,-223.6 -237.3,-499.14 -336.53,-724.64 -35.89,-81.57 -83.11,-158.24 -193.88,-152.78 -51.29,2.53 -100.86,31.87 -123.11,55.75 -41.37,44.41 -241.96,503.54 -286.52,595.04 -73.9,151.77 -149.58,330.81 -222.99,479.13 -39.36,79.51 -87.21,169.74 -26.76,257.06 45.3,65.42 154.6,109.28 250.36,48.01 84.51,-54.07 102.28,-203.89 136.48,-210.59l560.49 0z"/>
    </clipPath>
      <mask id="id40">
  <linearGradient id="id41" gradientUnits="userSpaceOnUse" x1="8659.71" y1="565.48" x2="8439.49" y2="997.67">
   <stop offset="0" style="stop-opacity:1; stop-color:white"/>
   <stop offset="1" style="stop-opacity:0; stop-color:white"/>
  </linearGradient>
       <rect style="fill:url(#id41)" x="7923.63" y="136.26" width="825.86" height="1287.04"/>
      </mask>
      <mask id="id42">
  <linearGradient id="id43" gradientUnits="userSpaceOnUse" x1="8769.71" y1="1160.56" x2="8560.29" y2="747.64">
   <stop offset="0" style="stop-opacity:1; stop-color:white"/>
   <stop offset="1" style="stop-opacity:0; stop-color:white"/>
  </linearGradient>
       <rect style="fill:url(#id43)" x="8442.89" y="329.06" width="825.85" height="1287.04"/>
      </mask>
      <mask id="id44">
  <linearGradient id="id45" gradientUnits="userSpaceOnUse" x1="8341.92" y1="1004.56" x2="8667.89" y2="1004.55">
   <stop offset="0" style="stop-opacity:1; stop-color:white"/>
   <stop offset="1" style="stop-opacity:0; stop-color:white"/>
  </linearGradient>
       <rect style="fill:url(#id45)" x="8095.23" y="1001.25" width="1087.08" height="366.38"/>
      </mask>
    <clipPath id="id46">
     <path d="M1833.49 748.24c11.12,11.13 113.42,227.8 121.52,255.61l-239.54 -2.31 118.01 -253.3zm282.44 616.08c39.25,16.48 49.82,157.03 140.2,212.49 97.15,59.61 205.04,12.94 248.9,-53.13 60.88,-91.72 2.19,-188.28 -36.1,-268.52 -37.41,-78.38 -72.82,-157.79 -110.55,-237.81 -105.44,-223.6 -237.3,-499.14 -336.53,-724.64 -35.89,-81.57 -83.11,-158.24 -193.88,-152.78 -51.29,2.53 -100.86,31.87 -123.11,55.75 -41.37,44.41 -241.96,503.54 -286.51,595.04 -73.9,151.77 -149.58,330.81 -222.99,479.13 -39.36,79.51 -87.21,169.74 -26.76,257.06 45.3,65.42 154.6,109.28 250.36,48.01 84.51,-54.07 102.28,-203.89 136.48,-210.59l560.49 0z"/>
    </clipPath>
      <mask id="id47">
  <linearGradient id="id48" gradientUnits="userSpaceOnUse" x1="1928.11" y1="565.48" x2="1707.88" y2="997.67">
   <stop offset="0" style="stop-opacity:1; stop-color:white"/>
   <stop offset="1" style="stop-opacity:0; stop-color:white"/>
  </linearGradient>
       <rect style="fill:url(#id48)" x="1192.02" y="136.26" width="825.86" height="1287.04"/>
      </mask>
      <mask id="id49">
  <linearGradient id="id50" gradientUnits="userSpaceOnUse" x1="2038.11" y1="1160.56" x2="1828.68" y2="747.64">
   <stop offset="0" style="stop-opacity:1; stop-color:white"/>
   <stop offset="1" style="stop-opacity:0; stop-color:white"/>
  </linearGradient>
       <rect style="fill:url(#id50)" x="1711.29" y="329.06" width="825.85" height="1287.04"/>
      </mask>
      <mask id="id51">
  <linearGradient id="id52" gradientUnits="userSpaceOnUse" x1="1610.32" y1="1004.56" x2="1936.28" y2="1004.55">
   <stop offset="0" style="stop-opacity:1; stop-color:white"/>
   <stop offset="1" style="stop-opacity:0; stop-color:white"/>
  </linearGradient>
       <rect style="fill:url(#id52)" x="1363.63" y="1001.25" width="1087.08" height="366.38"/>
      </mask>
     <clipPath id="id53">
      <path d="M7280.84 1876.75l0 -0 0 -0.01c0,-1.19 0.02,-2.37 0.05,-3.55l0 -0.01c0.03,-1.18 0.07,-2.36 0.14,-3.53l0 -0.01c0.06,-1.17 0.14,-2.34 0.23,-3.51l0 -0.01c0.09,-1.16 0.19,-2.32 0.31,-3.48l0 -0.01c0.12,-1.16 0.25,-2.31 0.4,-3.46l0 -0.01c0.15,-1.15 0.31,-2.29 0.48,-3.43l0 -0.01c0.18,-1.14 0.37,-2.28 0.57,-3.41l0 -0c0.2,-1.13 0.42,-2.25 0.65,-3.38l0 -0.01c0.23,-1.12 0.48,-2.24 0.74,-3.35l0 -0.01c0.26,-1.11 0.53,-2.21 0.82,-3.31l0 -0.01c0.29,-1.1 0.59,-2.2 0.9,-3.29l0 -0.01c0.31,-1.09 0.64,-2.18 0.98,-3.26l0 -0.01c0.33,-1.08 0.69,-2.15 1.05,-3.22l0 -0.01c0.36,-1.07 0.74,-2.13 1.13,-3.19l0 -0.01c0.39,-1.05 0.8,-2.1 1.21,-3.15l0 -0.01c0.41,-1.04 0.84,-2.08 1.28,-3.11l0 -0.01c0.44,-1.03 0.89,-2.06 1.35,-3.08l0 -0.01c0.46,-1.02 0.94,-2.03 1.43,-3.04l0 -0c0.49,-1.01 0.99,-2 1.5,-3l0 -0.01c0.51,-0.99 1.04,-1.97 1.57,-2.95l0 -0.01c0.53,-0.98 1.08,-1.95 1.63,-2.92 3.9,-6.76 8.36,-13.17 13.31,-19.16l0 -0c0.71,-0.86 1.42,-1.69 2.15,-2.54l0 -0c0.73,-0.83 1.46,-1.66 2.21,-2.48l0 -0c2.24,-2.46 4.57,-4.84 6.97,-7.14l0 -0c0.8,-0.77 1.62,-1.51 2.44,-2.26l0 -0c0.82,-0.74 1.65,-1.48 2.49,-2.21l0 -0c1.68,-1.45 3.38,-2.86 5.13,-4.24l0 0c0.88,-0.68 1.75,-1.36 2.64,-2.03 0.89,-0.67 1.78,-1.32 2.69,-1.97l0 -0c0.9,-0.65 1.82,-1.27 2.74,-1.9l0 -0c0.92,-0.62 1.85,-1.23 2.78,-1.83l0 -0c0.94,-0.6 1.88,-1.19 2.83,-1.77l0 -0c0.95,-0.58 1.91,-1.15 2.87,-1.7 0.97,-0.56 1.94,-1.1 2.92,-1.64l0 -0c0.98,-0.53 1.97,-1.05 2.96,-1.56 0.99,-0.51 2,-1.01 3,-1.5l0 0c1.01,-0.49 2.02,-0.96 3.04,-1.42l0 -0c1.02,-0.47 2.05,-0.91 3.09,-1.35l0 -0c1.03,-0.44 2.07,-0.86 3.12,-1.28l0 -0c1.05,-0.41 2.1,-0.82 3.16,-1.2l0 -0c1.06,-0.39 2.13,-0.77 3.19,-1.13 1.07,-0.36 2.15,-0.71 3.23,-1.05l0 -0c1.08,-0.34 2.17,-0.66 3.26,-0.97l0 0c1.09,-0.31 2.19,-0.61 3.29,-0.9l0 -0c1.1,-0.28 2.21,-0.55 3.32,-0.81 1.12,-0.26 2.23,-0.5 3.36,-0.74l0 0c1.12,-0.23 2.25,-0.45 3.38,-0.65 1.13,-0.2 2.27,-0.39 3.41,-0.57l0 0c1.14,-0.18 2.28,-0.34 3.43,-0.48l0 0c1.15,-0.15 2.3,-0.28 3.46,-0.4l0.01 0c1.16,-0.12 2.32,-0.22 3.48,-0.31l0.01 0c1.16,-0.09 2.33,-0.17 3.51,-0.23l0.01 0c1.17,-0.06 2.35,-0.11 3.53,-0.14l0.01 0c1.18,-0.03 2.36,-0.05 3.55,-0.05l0.01 0 0 0 568.18 0c76.12,0 138.41,62.29 138.41,138.42l0 0c0,76.14 -62.3,138.43 -138.41,138.43l-429.76 0 0 173.95 222.01 0c76.14,0 138.43,62.29 138.43,138.42l0 0c0,76.14 -62.29,138.43 -138.43,138.43l-222.01 0 0 289.67c0,76.14 -62.29,138.42 -138.42,138.42l-0 0c-76.13,0 -138.42,-62.28 -138.42,-138.42l0 -878.89z"/>
     </clipPath>
       <mask id="id54">
  <linearGradient id="id55" gradientUnits="userSpaceOnUse" x1="7557.69" y1="1876.74" x2="7557.7" y2="2189.12">
   <stop offset="0" style="stop-opacity:1; stop-color:white"/>
   <stop offset="1" style="stop-opacity:0; stop-color:white"/>
  </linearGradient>
        <rect style="fill:url(#id55)" x="7277.53" y="1735.01" width="283.48" height="838.1"/>
       </mask>
       <mask id="id56">
  <linearGradient id="id57" gradientUnits="userSpaceOnUse" x1="7987.44" y1="1738.32" x2="7675.06" y2="1738.31">
   <stop offset="0" style="stop-opacity:1; stop-color:white"/>
   <stop offset="1" style="stop-opacity:0; stop-color:white"/>
  </linearGradient>
        <rect style="fill:url(#id57)" x="7291.08" y="1735.01" width="838.1" height="283.48"/>
       </mask>
     <clipPath id="id58">
      <path d="M8814.98 2387.25c5.76,-6.84 0.53,-2.07 7.67,-7.65 38.95,-30.42 42.96,-38.03 80.1,-75.04 14.54,-14.48 68.85,-73.58 83.93,-78.84l0.03 532.1c-3.22,108.12 182.11,182.4 256.49,50.51 21.66,-38.41 16.88,-83.72 16.88,-131.23 -0,-196.69 0,-393.38 0,-590.07 0,-79.27 15.15,-216.93 -24.36,-274.31 -41.85,-60.78 -125.19,-82.39 -200.93,-28.89 -22.7,16.04 -54.93,52.62 -76.48,74.11l-218.69 218.71 -182.04 -180.02c-68.17,-68.12 -129.8,-154.01 -218.04,-142.5 -51.47,6.72 -89.69,41.02 -107.56,76.42 -21.97,43.52 -14.27,112.03 -14.27,164.41l-0.03 724.04c-0.16,136.48 107.95,185.07 193.53,148.56 101.17,-43.17 83.14,-158.4 83.14,-282.53 0,-70.35 -3.47,-306.97 0.79,-357.63 21.9,17.5 44.64,42.93 65.49,63.74 43.57,43.49 95.72,108.2 149.97,118.38 34.73,6.52 84.78,-0.91 104.38,-22.28z"/>
     </clipPath>
       <mask id="id59">
  <linearGradient id="id60" gradientUnits="userSpaceOnUse" x1="8494.35" y1="2136.78" x2="8494.36" y2="2584">
   <stop offset="0" style="stop-opacity:1; stop-color:white"/>
   <stop offset="1" style="stop-opacity:0; stop-color:white"/>
  </linearGradient>
        <rect style="fill:url(#id60)" x="8214.37" y="1749.78" width="283.29" height="837.54"/>
       </mask>
       <mask id="id61">
  <linearGradient id="id62" gradientUnits="userSpaceOnUse" x1="8606.14" y1="2338.22" x2="8393.78" y2="2126.1">
   <stop offset="0" style="stop-opacity:1; stop-color:white"/>
   <stop offset="1" style="stop-opacity:0; stop-color:white"/>
  </linearGradient>
        <rect style="fill:url(#id62)" x="8142.76" y="1679.92" width="738.91" height="734.51"/>
       </mask>
       <mask id="id63">
  <linearGradient id="id64" gradientUnits="userSpaceOnUse" x1="9186.77" y1="2024.06" x2="8943.03" y2="2263.18">
   <stop offset="0" style="stop-opacity:1; stop-color:white"/>
   <stop offset="1" style="stop-opacity:0; stop-color:white"/>
  </linearGradient>
        <rect style="fill:url(#id64)" x="8528.63" y="1748.57" width="734.26" height="739.15"/>
       </mask>
       <mask id="id65">
  <linearGradient id="id66" gradientUnits="userSpaceOnUse" x1="9260.09" y1="2495.6" x2="9260.1" y2="2048.38">
   <stop offset="0" style="stop-opacity:1; stop-color:white"/>
   <stop offset="1" style="stop-opacity:0; stop-color:white"/>
  </linearGradient>
        <rect style="fill:url(#id66)" x="8980.11" y="2045.07" width="283.29" height="837.54"/>
       </mask>
     <clipPath id="id67">
      <path d="M5526.01 1938.33c144.43,0 261.52,117.09 261.52,261.52 0,45.06 -11.4,87.46 -31.46,124.46l0 0 -0.05 0.09c-1.38,2.54 -2.81,5.04 -4.27,7.52l-111.18 196.19 -68.67 121.17c-23.98,42.31 -78.21,57.31 -120.52,33.33l-0 0c-42.31,-23.98 -57.31,-78.21 -33.33,-120.53l59.61 -105.19c-121.34,-22.68 -213.18,-129.13 -213.18,-257.05 0,-144.43 117.09,-261.52 261.53,-261.52zm41.75 187.85c40.69,23.06 54.98,74.73 31.92,115.42 -23.06,40.69 -74.73,54.98 -115.42,31.92 -40.69,-23.06 -54.98,-74.73 -31.92,-115.42 23.06,-40.69 74.73,-54.98 115.42,-31.92z"/>
     </clipPath>
       <mask id="id68">
  <linearGradient id="id69" gradientUnits="userSpaceOnUse" x1="5601.67" y1="2238.09" x2="5488.2" y2="2124.07">
   <stop offset="0" style="stop-opacity:1; stop-color:white"/>
   <stop offset="1" style="stop-opacity:0; stop-color:white"/>
  </linearGradient>
        <rect style="fill:url(#id69)" x="5394.38" y="1829.99" width="594.6" height="887.74"/>
       </mask>
       <mask id="id70">
  <linearGradient id="id71" gradientUnits="userSpaceOnUse" x1="5452.33" y1="2158.1" x2="5558.66" y2="2354.91">
   <stop offset="0" style="stop-opacity:1; stop-color:white"/>
   <stop offset="1" style="stop-opacity:0; stop-color:white"/>
  </linearGradient>
        <rect style="fill:url(#id71)" x="5073.48" y="2021.97" width="623.35" height="531.07"/>
       </mask>
     <clipPath id="id72">
      <path d="M6881.79 1938.33c144.43,0 261.52,117.09 261.52,261.52 0,45.06 -11.4,87.46 -31.46,124.46l0 0 -0.05 0.09c-1.38,2.54 -2.81,5.04 -4.27,7.52l-111.18 196.19 -68.67 121.17c-23.98,42.31 -78.21,57.31 -120.52,33.33l-0 0c-42.31,-23.98 -57.31,-78.21 -33.33,-120.53l59.61 -105.19c-121.34,-22.68 -213.19,-129.13 -213.19,-257.05 0,-144.43 117.09,-261.52 261.53,-261.52zm41.75 187.85c40.69,23.06 54.98,74.73 31.92,115.42 -23.06,40.69 -74.73,54.98 -115.42,31.92 -40.69,-23.06 -54.98,-74.73 -31.92,-115.42 23.06,-40.69 74.73,-54.98 115.42,-31.92z"/>
     </clipPath>
       <mask id="id73">
  <linearGradient id="id74" gradientUnits="userSpaceOnUse" x1="6957.45" y1="2238.09" x2="6843.98" y2="2124.07">
   <stop offset="0" style="stop-opacity:1; stop-color:white"/>
   <stop offset="1" style="stop-opacity:0; stop-color:white"/>
  </linearGradient>
        <rect style="fill:url(#id74)" x="6750.16" y="1829.99" width="594.6" height="887.74"/>
       </mask>
       <mask id="id75">
  <linearGradient id="id76" gradientUnits="userSpaceOnUse" x1="6808.11" y1="2158.1" x2="6914.44" y2="2354.91">
   <stop offset="0" style="stop-opacity:1; stop-color:white"/>
   <stop offset="1" style="stop-opacity:0; stop-color:white"/>
  </linearGradient>
        <rect style="fill:url(#id76)" x="6429.25" y="2021.97" width="623.35" height="531.07"/>
       </mask>
     <clipPath id="id77">
      <path d="M6069.47 2694.05c-144.43,0 -261.52,-117.09 -261.52,-261.52 0,-45.06 11.4,-87.46 31.46,-124.46l0 -0 0.05 -0.09c1.38,-2.54 2.81,-5.04 4.27,-7.52l111.18 -196.19 68.67 -121.17c23.98,-42.31 78.21,-57.31 120.52,-33.33l0 0c42.31,23.98 57.31,78.21 33.33,120.52l-59.61 105.19c121.34,22.68 213.18,129.13 213.18,257.05 0,144.43 -117.09,261.52 -261.53,261.52zm-41.75 -187.86c-40.69,-23.06 -54.98,-74.73 -31.92,-115.42 23.06,-40.69 74.73,-54.98 115.42,-31.92 40.69,23.06 54.98,74.73 31.92,115.42 -23.06,40.69 -74.73,54.98 -115.42,31.92z"/>
     </clipPath>
       <mask id="id78">
  <linearGradient id="id79" gradientUnits="userSpaceOnUse" x1="5993.81" y1="2394.29" x2="6107.27" y2="2508.31">
   <stop offset="0" style="stop-opacity:1; stop-color:white"/>
   <stop offset="1" style="stop-opacity:0; stop-color:white"/>
  </linearGradient>
        <rect style="fill:url(#id79)" x="5606.5" y="1914.64" width="594.6" height="887.75"/>
       </mask>
       <mask id="id80">
  <linearGradient id="id81" gradientUnits="userSpaceOnUse" x1="6143.14" y1="2474.28" x2="6036.82" y2="2277.47">
   <stop offset="0" style="stop-opacity:1; stop-color:white"/>
   <stop offset="1" style="stop-opacity:0; stop-color:white"/>
  </linearGradient>
        <rect style="fill:url(#id81)" x="5898.65" y="2079.33" width="623.35" height="531.07"/>
       </mask>
 </defs>
 <g id="Layer_x0020_1">
  <metadata id="CorelCorpID_0Corel-Layer"/>
  <path class="fil0" d="M2601.88 1605.97c-94.26,127.79 -275.74,162.32 -411.96,78.73 -57.81,-35.47 -96.56,-88.21 -125.61,-148.35 -6.46,-13.38 -12.66,-29.61 -18.97,-45.44l-419.36 0c-6.07,15.1 -12.05,30.41 -18.32,43.45 -28.07,58.37 -65,111.68 -120.49,147.19 -138.68,88.74 -328.52,53.38 -422.66,-82.58 -91.57,-132.26 -46.1,-257.02 17.39,-385.28 78,-157.57 145.63,-320.27 222.62,-478.39 49.9,-102.48 95.45,-209.18 143.36,-312.85 28.54,-61.76 57.37,-123.59 87.76,-184.46 19.4,-38.85 47.27,-97.11 76.59,-128.58 51.35,-55.12 134.66,-92.21 209.5,-95.9 163.42,-8.06 255.32,90.38 315.98,228.23 106.75,242.59 222.11,481.91 335.16,721.64 23.41,49.66 46.17,99.63 69.19,149.48 36.63,-34.74 82.22,-60.18 133.98,-73.89 7.96,-2.1 15.7,-3.9 23.25,-5.41 -6.78,-4.19 -13.52,-8.5 -20.22,-12.96 -176.65,-117.51 -259.14,-324.17 -221.56,-531.04 39.7,-218.53 199.48,-384.58 407.46,-454.4 226.52,-76.04 555.25,-29.71 723.81,149.31 10.71,11.37 20.74,23.26 30,35.6 4.13,-12.24 9.15,-24.41 15.24,-36.47 45.8,-90.74 135.63,-154.69 236.49,-167.85 177.78,-23.2 277.47,110.61 388.91,220.8l147.2 145.57 195.35 -195.37c37.19,-37.19 72.87,-79.83 115.94,-110.25 144.9,-102.34 336.82,-78.6 438.57,69.17 78.68,114.27 54,295.42 54,428.49 0,141.03 0,282.06 0,423.09 39.73,-87.62 79.03,-175.45 121.14,-261.92 49.9,-102.48 95.44,-209.18 143.36,-312.85 28.54,-61.76 57.38,-123.59 87.76,-184.46 19.4,-38.85 47.27,-97.11 76.59,-128.58 51.34,-55.11 134.65,-92.21 209.49,-95.9 163.42,-8.06 255.33,90.38 315.99,228.23 71.15,161.69 146.13,321.94 221.7,481.82 21.7,-125 70.76,-245.46 145.75,-352.51 162.21,-231.56 420.46,-366.37 703.02,-369.46 138.81,-1.52 307.99,40.16 429.86,107.77 69.57,38.6 134.57,91.25 173.44,161.88 46.89,85.19 46.27,179.48 4.67,267.08 -16.58,34.91 -39.11,65.61 -65.98,91.22 56.4,21.03 104.29,58.35 144.05,121.32 26.64,42.19 39.25,87.21 44.89,133.5 21.45,-46.97 43.17,-93.81 65.67,-140.27l80.01 -172.13c22.49,-49.99 44.78,-100.09 67.61,-149.5 27.2,-58.87 54.67,-117.8 83.51,-175.91 12.07,-26.58 24.67,-51.71 38.45,-74.94 13.16,-23.6 27.59,-46.31 42.39,-62.2 6.85,-7.36 14.28,-14.39 22.17,-21.07 45.95,-43.47 104.97,-70.85 187.42,-74.84 3.92,-0.19 7.81,-0.32 11.65,-0.39 156.1,-2.87 245.04,94.13 304.23,228.63 7.31,16.61 14.66,33.21 22.05,49.78 65.75,145.09 137.27,287.57 201.94,433.17 10.74,24.18 21.57,48.33 32.53,72.43 25.67,54.19 51.34,108.36 76.9,162.55 0.24,0.48 0.48,0.97 0.72,1.46 27.95,56.37 53.16,113.95 79.21,171.15 10.59,22.84 21.27,45.65 32.11,68.37 6.93,14.52 13.89,28.65 20.63,42.7 16.96,34.95 32.52,69.4 42.81,108.83 5.44,20.83 8.94,41.53 10.39,62.01 4.78,62.82 -9.44,123.69 -46.51,179.52 -39.84,60.03 -98.13,101.39 -162.84,121.83 -83.41,26.76 -177.62,18.25 -257.57,-30.57 -54.3,-33.16 -91.74,-80.98 -119.79,-136.62 -2.03,-3.96 -4.02,-7.95 -5.96,-11.97 -6.46,-13.38 -12.66,-29.61 -18.97,-45.44l-418.28 0c-4.08,9.18 -8.11,18.39 -12.28,27.53 -2.35,5.55 -4.72,10.9 -7.13,15.91 -5.02,10.44 -10.32,20.71 -15.96,30.75 -22.58,41.87 -47.13,74.87 -87.3,104.41 -5.54,4.2 -11.28,8.21 -17.24,12.03 -43.15,27.61 -91.27,43.21 -139.91,47.49 -78.32,6.99 -158.06,-15.34 -220.47,-64.2 -23.5,-18.3 -44.59,-40.31 -62.29,-65.88 -9.28,-13.4 -17.15,-26.72 -23.74,-39.98 -16.32,13.05 -32.35,24.8 -47.26,34.65 -317.97,209.97 -731.76,199.4 -1027.29,-44.31 -9.22,-7.6 -18.24,-15.29 -27.06,-23.07 -7.73,23.13 -18.71,45.67 -33.17,67.45 -91.45,137.78 -280.07,177.22 -420.56,91.01 -57.81,-35.47 -96.56,-88.2 -125.61,-148.35 -6.46,-13.38 -12.66,-29.62 -18.98,-45.44l-419.37 0c-6.07,15.1 -12.04,30.4 -18.32,43.45 -28.06,58.37 -64.99,111.68 -120.49,147.19 -124.01,79.34 -288.91,59.47 -389.72,-42.82 -76.55,80.01 -188.97,111.16 -301.62,79.34 -122.84,-34.7 -223.89,-141.03 -221.09,-273.26l-0.02 -397.49c-1.13,0.91 -2.26,1.82 -3.41,2.74 -59.38,64.76 -168.6,83.55 -252.38,67.82 -50.98,-9.57 -93.72,-33.61 -132.3,-64.09 0.48,55.98 1.06,111.96 1.06,167.91 0,80.63 6.69,163.77 -6.39,243.62 -17.98,109.81 -73.9,195.5 -178.65,240.18 -93.36,39.84 -201.19,33.08 -286.51,-22.72 -59.31,-38.78 -98.72,-94.27 -120.53,-157.34 -88.5,104.69 -215.19,176.55 -358.13,201.61 -161.91,28.39 -364.07,18.78 -517.77,-40.53 -50.59,-19.53 -100.64,-46.76 -144.91,-80.55zm999.97 -804.17l0.01 -177.57c-34.51,35.27 -77.7,61.88 -126.95,77.37 47.25,28.41 89.96,62.05 126.94,100.21zm3440.99 236.71c-75.52,-167.88 15.61,-382.17 214.68,-425.32 -40.35,-3.14 -79.49,5.13 -121.52,23.47 -167.66,73.16 -199.42,278 -93.16,401.84zm-6044.7 -75.22l0 461.01c0,168.87 -137.72,306.59 -306.59,306.59 -168.86,0 -306.58,-137.72 -306.58,-306.59l0 -462.07 -328.83 -464.55c-97.56,-137.83 -64.71,-329.81 73.11,-427.37 137.83,-97.56 329.81,-64.72 427.37,73.11l135.3 191.16 135.31 -191.16c97.56,-137.83 289.53,-170.68 427.37,-73.11 137.83,97.56 170.67,289.54 73.11,427.37l-329.57 465.61z"/>
  <g id="_3268007858256">
   <path class="fil1" d="M4505.1 964.49c7.5,-8.89 0.7,-2.7 9.98,-9.95 50.65,-39.56 55.86,-49.45 104.16,-97.57 18.9,-18.83 89.53,-95.67 109.14,-102.52l0.04 691.91c-4.19,140.59 236.8,237.18 333.52,65.68 28.17,-49.95 21.95,-108.86 21.95,-170.64 -0.01,-255.76 0,-511.52 0,-767.28 0,-103.07 19.7,-282.08 -31.67,-356.69 -54.42,-79.03 -162.79,-107.13 -261.28,-37.57 -29.52,20.85 -71.43,68.42 -99.45,96.36l-284.36 284.39 -236.72 -234.08c-88.64,-88.57 -168.78,-200.26 -283.52,-185.29 -66.93,8.73 -116.63,53.34 -139.86,99.37 -28.57,56.59 -18.56,145.67 -18.56,213.8l-0.04 941.48c-0.2,177.47 140.37,240.65 251.65,193.17 131.56,-56.13 108.12,-205.97 108.12,-367.38 0,-91.48 -4.52,-399.15 1.02,-465.03 28.48,22.75 58.05,55.82 85.16,82.88 56.66,56.55 124.47,140.69 195.01,153.93 45.16,8.48 110.24,-1.18 135.72,-28.97z"/>
   <g style="clip-path:url(#id0)">
    <g>
     <path id="_1" class="fil2" style="mask:url(#id1)" d="M3908.3 139.88l0 0c98.93,0 179.87,80.95 179.87,179.87l0 900.57 -359.75 0 0 -900.57c0,-98.93 80.94,-179.87 179.87,-179.87z"/>
     <path class="fil2" style="mask:url(#id3)" d="M4535.43 942l-0.01 0c-69.98,70.77 -185.14,71.41 -255.91,1.43l-644.21 -637.05 254.48 -257.34 644.21 637.05c70.77,69.98 71.42,185.14 1.44,255.91z"/>
     <path class="fil2" style="mask:url(#id5)" d="M5029.62 190.31l0 0c70.82,69.94 71.52,185.1 1.59,255.91l-636.65 644.6 -257.5 -254.32 636.65 -644.61c69.94,-70.81 185.09,-71.53 255.91,-1.59z"/>
     <path class="fil2" style="mask:url(#id7)" d="M4904 1604.3l0 0c98.93,0 179.87,-80.95 179.87,-179.88l0 -900.57 -359.75 0 0 900.57c0,98.93 80.94,179.88 179.87,179.88z"/>
    </g>
   </g>
   <path class="fil3" d="M4505.1 964.49c7.5,-8.89 0.7,-2.7 9.98,-9.95 50.65,-39.56 55.86,-49.45 104.16,-97.57 18.9,-18.83 89.53,-95.67 109.14,-102.52l0.04 691.91c-4.19,140.59 236.8,237.18 333.52,65.68 28.17,-49.95 21.95,-108.86 21.95,-170.64 -0.01,-255.76 0,-511.52 0,-767.28 0,-103.07 19.7,-282.08 -31.67,-356.69 -54.42,-79.03 -162.79,-107.13 -261.28,-37.57 -29.52,20.85 -71.43,68.42 -99.45,96.36l-284.36 284.39 -236.72 -234.08c-88.64,-88.57 -168.78,-200.26 -283.52,-185.29 -66.93,8.73 -116.63,53.34 -139.86,99.37 -28.57,56.59 -18.56,145.67 -18.56,213.8l-0.04 941.48c-0.2,177.47 140.37,240.65 251.65,193.17 131.56,-56.13 108.12,-205.97 108.12,-367.38 0,-91.48 -4.52,-399.15 1.02,-465.03 28.48,22.75 58.05,55.82 85.16,82.88 56.66,56.55 124.47,140.69 195.01,153.93 45.16,8.48 110.24,-1.18 135.72,-28.97z"/>
   <path class="fil1" d="M7480.78 1092.55c9.53,65.33 1.16,79.64 -39.48,105.12 -32.02,20.07 -62.89,33.68 -101.78,45.35 -81.44,24.44 -180.34,13.24 -252.37,-18.62 -315.87,-139.74 -302.74,-572.43 -1.78,-703.76 234.83,-102.47 374.7,53.34 450.72,65.45 94.72,15.08 165.34,-44.3 192.79,-102.11 107.86,-227.11 -277.58,-358.2 -492.24,-355.85 -513.83,5.61 -855.46,508.85 -697.86,980.7 53.44,160 143.22,263.36 239.57,342.82 242.78,200.21 593.05,223.84 877,36.33 47.95,-31.66 120.79,-97.38 149.7,-144.36 47.07,-76.52 36.43,-160.76 36.43,-257.99 0,-85.91 15.1,-200.17 -27.24,-267.23 -42.96,-68.05 -95.62,-86.53 -201.97,-86.38 -94.36,0.14 -201.11,-4.76 -293.88,0.36 -180.95,9.98 -236.5,230.5 -96.18,329.77 63.21,44.72 172.99,30.4 258.57,30.4z"/>
   <g style="clip-path:url(#id9)">
    <g>
     <path id="_1_0" class="fil2" style="mask:url(#id10)" d="M7744.16 504.89l-0.01 0.01c-62.11,117.99 -209.46,163.7 -327.44,101.6l-1074.05 -565.35 225.84 -429.05 1074.05 565.35c117.99,62.11 163.72,209.45 101.61,327.44z"/>
     <path class="fil2" style="mask:url(#id12)" d="M7138.51 912.26l0 -0c0,-98.93 80.95,-179.87 179.88,-179.87l900.57 0 0 359.75 -900.57 0c-98.93,0 -179.88,-80.94 -179.88,-179.87z"/>
     <path class="fil2" style="mask:url(#id14)" d="M7663.08 733.49l0 0c98.93,0 179.87,80.95 179.87,179.88l0 900.57 -359.75 0 0 -900.57c0,-98.93 80.94,-179.88 179.87,-179.88z"/>
     <path class="fil2" style="mask:url(#id16)" d="M6679.95 730.08l0 0c98.94,0 179.88,80.95 179.88,179.88l0 0 660.97 798.4 -1020.72 102.17 0 -900.57c0,-98.92 80.95,-179.88 179.87,-179.88z"/>
    </g>
   </g>
   <path class="fil3" d="M7480.78 1092.55c9.53,65.33 1.16,79.64 -39.48,105.12 -32.02,20.07 -62.89,33.68 -101.78,45.35 -81.44,24.44 -180.34,13.24 -252.37,-18.62 -315.87,-139.74 -302.74,-572.43 -1.78,-703.76 234.83,-102.47 374.7,53.34 450.72,65.45 94.72,15.08 165.34,-44.3 192.79,-102.11 107.86,-227.11 -277.58,-358.2 -492.24,-355.85 -513.83,5.61 -855.46,508.85 -697.86,980.7 53.44,160 143.22,263.36 239.57,342.82 242.78,200.21 593.05,223.84 877,36.33 47.95,-31.66 120.79,-97.38 149.7,-144.36 47.07,-76.52 36.43,-160.76 36.43,-257.99 0,-85.91 15.1,-200.17 -27.24,-267.23 -42.96,-68.05 -95.62,-86.53 -201.97,-86.38 -94.36,0.14 -201.11,-4.76 -293.88,0.36 -180.95,9.98 -236.5,230.5 -96.18,329.77 63.21,44.72 172.99,30.4 258.57,30.4z"/>
   <path class="fil1" d="M8565.23 748.43c12.66,13.3 112.73,226.72 121.25,255.41l-239.54 -2.09 118.3 -253.32zm282.31 615.89c43.18,18.67 47.81,156.22 140.12,212.59 99.86,60.98 205.24,11.05 248.34,-53.88 61.77,-93.05 2.72,-188.12 -35.62,-267.7 -37.3,-77.44 -71.39,-159.38 -110.35,-237.99 -38.59,-77.85 -77.19,-161.94 -112.43,-241.28 -69.75,-157.04 -155.05,-326.14 -224.3,-483.17 -34.87,-79.07 -82.85,-158.36 -193.74,-152.98 -113.15,5.49 -149.49,87.11 -185.28,167.8l-447.23 962.2c-39.95,81.72 -87.89,166.09 -26.56,256.73 44.54,65.82 154.28,109.68 249.93,48.16 38.03,-24.46 52.86,-50.42 75.83,-98.25 10.09,-21.02 17.6,-39.64 27.2,-59.98 8.24,-17.46 15.58,-45.24 36.32,-52.24l557.77 0z"/>
   <path class="fil1" d="M5860.58 748.24c11.12,11.13 113.42,227.8 121.52,255.61l-239.54 -2.31 118.01 -253.3zm282.44 616.08c39.25,16.48 49.83,157.03 140.2,212.49 97.15,59.61 205.04,12.94 248.9,-53.13 60.88,-91.72 2.19,-188.28 -36.1,-268.52 -37.41,-78.38 -72.82,-157.79 -110.55,-237.81 -105.44,-223.6 -237.3,-499.14 -336.52,-724.64 -35.89,-81.57 -83.12,-158.24 -193.89,-152.78 -51.29,2.53 -100.86,31.87 -123.11,55.75 -41.36,44.41 -241.96,503.54 -286.51,595.04 -73.9,151.77 -149.58,330.81 -222.99,479.13 -39.36,79.51 -87.21,169.74 -26.76,257.06 45.3,65.42 154.6,109.28 250.36,48.01 84.51,-54.07 102.28,-203.89 136.48,-210.59l560.49 0z"/>
   <g style="clip-path:url(#id18)">
    <g>
     <path id="_1_1" class="fil2" style="mask:url(#id19)" d="M5936.8 155.88l0 0c89.9,41.3 130.01,148.8 88.38,238.54l-475.84 1025.58 -326.92 -150.15 475.83 -1025.58c41.64,-89.74 148.63,-129.68 238.54,-88.39z"/>
     <path class="fil2" style="mask:url(#id21)" d="M6456.06 1596.49l0 0c89.9,-41.3 130.02,-148.8 88.39,-238.54l-475.84 -1025.58 -326.92 150.15 475.83 1025.58c41.64,89.74 148.63,129.67 238.54,88.38z"/>
     <path class="fil2" style="mask:url(#id23)" d="M5394.04 1184.44l0 -0c0,-98.93 80.95,-179.87 179.87,-179.87l900.57 0 0 359.75 -900.57 0c-98.93,0 -179.87,-80.94 -179.87,-179.87z"/>
    </g>
   </g>
   <path class="fil3" d="M5860.58 748.24c11.12,11.13 113.42,227.8 121.52,255.61l-239.54 -2.31 118.01 -253.3zm282.44 616.08c39.25,16.48 49.83,157.03 140.2,212.49 97.15,59.61 205.04,12.94 248.9,-53.13 60.88,-91.72 2.19,-188.28 -36.1,-268.52 -37.41,-78.38 -72.82,-157.79 -110.55,-237.81 -105.44,-223.6 -237.3,-499.14 -336.52,-724.64 -35.89,-81.57 -83.12,-158.24 -193.89,-152.78 -51.29,2.53 -100.86,31.87 -123.11,55.75 -41.36,44.41 -241.96,503.54 -286.51,595.04 -73.9,151.77 -149.58,330.81 -222.99,479.13 -39.36,79.51 -87.21,169.74 -26.76,257.06 45.3,65.42 154.6,109.28 250.36,48.01 84.51,-54.07 102.28,-203.89 136.48,-210.59l560.49 0z"/>
   <path class="fil1" d="M3555.1 459.85c23.33,-79.98 -21.1,-148.91 -58.49,-188.63 -136.66,-145.15 -416.95,-174.62 -591.36,-116.08 -373.21,125.28 -436.63,573.42 -156.08,760.03 220.21,146.48 502.27,112.06 517.75,243.28 9.03,76.5 -84.28,93.26 -154.75,97.3 -239.65,13.75 -255.54,-133.69 -403.73,-94.44 -63.3,16.76 -109.09,61.05 -127.07,123.07 -41.46,143 110.78,245.36 210.99,284.03 128.07,49.42 306.88,59.1 450.33,33.95 444.32,-77.9 544.63,-658.46 75.04,-836.76 -129.98,-49.35 -313.2,-59.02 -372.28,-133.81 -22.95,-29.06 -13.8,-73.88 6.49,-98 55.13,-65.52 200.26,-58.68 288.41,-6.35 52.93,31.42 94.81,79.78 186.35,56.3 63.95,-16.4 110.24,-61.7 128.39,-123.9z"/>
   <g style="clip-path:url(#id25)">
    <g>
     <g>
      <path id="_1_2" class="fil2" style="mask:url(#id26)" d="M3597.98 512.88l-0 0.01c-62.11,117.99 -209.46,163.7 -327.45,101.6l-1074.05 -565.35 225.84 -429.05 1074.05 565.35c117.99,62.11 163.72,209.45 101.61,327.44z"/>
      <path class="fil2" style="mask:url(#id28)" d="M2602.48 1229.76l0 -0.01c62.11,-117.99 209.46,-163.7 327.44,-101.6l1074.05 565.35 -225.84 429.05 -1074.05 -565.35c-117.98,-62.1 -163.72,-209.45 -101.61,-327.44z"/>
     </g>
     <path class="fil2" style="mask:url(#id30)" d="M2946.18 837.42l0 -0c22.34,-87.19 111.96,-140.24 199.15,-117.9l793.7 203.39 -81.25 317.06 -793.69 -203.39c-87.19,-22.34 -140.25,-111.96 -117.91,-199.15z"/>
    </g>
   </g>
   <path class="fil3" d="M3555.1 459.85c23.33,-79.98 -21.1,-148.91 -58.49,-188.63 -136.66,-145.15 -416.95,-174.62 -591.36,-116.08 -373.21,125.28 -436.63,573.42 -156.08,760.03 220.21,146.48 502.27,112.06 517.75,243.28 9.03,76.5 -84.28,93.26 -154.75,97.3 -239.65,13.75 -255.54,-133.69 -403.73,-94.44 -63.3,16.76 -109.09,61.05 -127.07,123.07 -41.46,143 110.78,245.36 210.99,284.03 128.07,49.42 306.88,59.1 450.33,33.95 444.32,-77.9 544.63,-658.46 75.04,-836.76 -129.98,-49.35 -313.2,-59.02 -372.28,-133.81 -22.95,-29.06 -13.8,-73.88 6.49,-98 55.13,-65.52 200.26,-58.68 288.41,-6.35 52.93,31.42 94.81,79.78 186.35,56.3 63.95,-16.4 110.24,-61.7 128.39,-123.9z"/>
   <path class="fil1" d="M1181.48 173.64c-80.8,-57.2 -193.71,-37.88 -250.91,42.93l-238.63 337.13 -238.63 -337.13c-57.19,-80.8 -170.1,-100.12 -250.91,-42.93 -80.81,57.2 -100.12,170.1 -42.93,250.91l352.09 497.42 0 502.34c0,99 81,180 180,180 99,0 180,-81 180,-180l0 -501.28 352.84 -498.48c57.2,-80.81 37.88,-193.71 -42.93,-250.91z"/>
   <g style="clip-path:url(#id32)">
    <g>
     <path id="_1_3" class="fil2" style="mask:url(#id33)" d="M1186.81 165.9l0 0c80.75,57.16 100.05,169.99 42.89,250.74l-520.3 735.06 -293.63 -207.84 520.3 -735.06c57.16,-80.75 169.99,-100.05 250.74,-42.9z"/>
     <path class="fil2" style="mask:url(#id35)" d="M691.68 1604.3l0 0c98.93,0 179.87,-80.95 179.87,-179.88l0 -900.57 -359.75 0 0 900.57c0,98.93 80.94,179.88 179.87,179.88z"/>
     <path class="fil2" style="mask:url(#id37)" d="M764.02 966.86l-0 0c-80.75,57.16 -193.58,37.85 -250.74,-42.9l-520.3 -735.07 293.64 -207.84 520.3 735.07c57.16,80.74 37.86,193.58 -42.9,250.74z"/>
    </g>
   </g>
   <path class="fil3" d="M1181.48 173.64c-80.8,-57.2 -193.71,-37.88 -250.91,42.93l-238.63 337.13 -238.63 -337.13c-57.19,-80.8 -170.1,-100.12 -250.91,-42.93 -80.81,57.2 -100.12,170.1 -42.93,250.91l352.09 497.42 0 502.34c0,99 81,180 180,180 99,0 180,-81 180,-180l0 -501.28 352.84 -498.48c57.2,-80.81 37.88,-193.71 -42.93,-250.91z"/>
   <path class="fil1" d="M8565.09 748.24c11.12,11.13 113.42,227.8 121.52,255.61l-239.53 -2.31 118.01 -253.3zm282.44 616.08c39.24,16.48 49.82,157.03 140.2,212.49 97.15,59.61 205.04,12.94 248.89,-53.13 60.88,-91.72 2.19,-188.28 -36.1,-268.52 -37.41,-78.38 -72.82,-157.79 -110.55,-237.81 -105.44,-223.6 -237.3,-499.14 -336.53,-724.64 -35.89,-81.57 -83.11,-158.24 -193.88,-152.78 -51.29,2.53 -100.86,31.87 -123.11,55.75 -41.37,44.41 -241.96,503.54 -286.52,595.04 -73.9,151.77 -149.58,330.81 -222.99,479.13 -39.36,79.51 -87.21,169.74 -26.76,257.06 45.3,65.42 154.6,109.28 250.36,48.01 84.51,-54.07 102.28,-203.89 136.48,-210.59l560.49 0z"/>
   <g style="clip-path:url(#id39)">
    <g>
     <path id="_1_4" class="fil2" style="mask:url(#id40)" d="M8641.31 155.88l0 0c89.9,41.3 130.01,148.8 88.38,238.54l-475.83 1025.58 -326.92 -150.15 475.84 -1025.58c41.63,-89.74 148.63,-129.68 238.54,-88.39z"/>
     <path class="fil2" style="mask:url(#id42)" d="M9160.57 1596.49l0 0c89.9,-41.3 130.02,-148.8 88.38,-238.54l-475.83 -1025.58 -326.92 150.15 475.83 1025.58c41.64,89.74 148.63,129.67 238.54,88.38z"/>
     <path class="fil2" style="mask:url(#id44)" d="M8098.55 1184.44l0 -0c0,-98.93 80.95,-179.87 179.88,-179.87l900.57 0 0 359.75 -900.57 0c-98.93,0 -179.88,-80.94 -179.88,-179.87z"/>
    </g>
   </g>
   <path class="fil3" d="M8565.09 748.24c11.12,11.13 113.42,227.8 121.52,255.61l-239.53 -2.31 118.01 -253.3zm282.44 616.08c39.24,16.48 49.82,157.03 140.2,212.49 97.15,59.61 205.04,12.94 248.89,-53.13 60.88,-91.72 2.19,-188.28 -36.1,-268.52 -37.41,-78.38 -72.82,-157.79 -110.55,-237.81 -105.44,-223.6 -237.3,-499.14 -336.53,-724.64 -35.89,-81.57 -83.11,-158.24 -193.88,-152.78 -51.29,2.53 -100.86,31.87 -123.11,55.75 -41.37,44.41 -241.96,503.54 -286.52,595.04 -73.9,151.77 -149.58,330.81 -222.99,479.13 -39.36,79.51 -87.21,169.74 -26.76,257.06 45.3,65.42 154.6,109.28 250.36,48.01 84.51,-54.07 102.28,-203.89 136.48,-210.59l560.49 0z"/>
   <path class="fil1" d="M1833.49 748.24c11.12,11.13 113.42,227.8 121.52,255.61l-239.54 -2.31 118.01 -253.3zm282.44 616.08c39.25,16.48 49.82,157.03 140.2,212.49 97.15,59.61 205.04,12.94 248.9,-53.13 60.88,-91.72 2.19,-188.28 -36.1,-268.52 -37.41,-78.38 -72.82,-157.79 -110.55,-237.81 -105.44,-223.6 -237.3,-499.14 -336.53,-724.64 -35.89,-81.57 -83.11,-158.24 -193.88,-152.78 -51.29,2.53 -100.86,31.87 -123.11,55.75 -41.37,44.41 -241.96,503.54 -286.51,595.04 -73.9,151.77 -149.58,330.81 -222.99,479.13 -39.36,79.51 -87.21,169.74 -26.76,257.06 45.3,65.42 154.6,109.28 250.36,48.01 84.51,-54.07 102.28,-203.89 136.48,-210.59l560.49 0z"/>
   <g style="clip-path:url(#id46)">
    <g>
     <path id="_1_5" class="fil2" style="mask:url(#id47)" d="M1909.71 155.88l0 0c89.9,41.3 130.02,148.8 88.38,238.54l-475.83 1025.58 -326.92 -150.15 475.84 -1025.58c41.64,-89.74 148.63,-129.68 238.54,-88.39z"/>
     <path class="fil2" style="mask:url(#id49)" d="M2428.97 1596.49l0 0c89.9,-41.3 130.01,-148.8 88.38,-238.54l-475.83 -1025.58 -326.92 150.15 475.83 1025.58c41.63,89.74 148.63,129.67 238.54,88.38z"/>
     <path class="fil2" style="mask:url(#id51)" d="M1366.94 1184.44l0 -0c0,-98.93 80.95,-179.87 179.88,-179.87l900.57 0 0 359.75 -900.57 0c-98.93,0 -179.88,-80.94 -179.88,-179.87z"/>
    </g>
   </g>
   <path class="fil3" d="M1833.49 748.24c11.12,11.13 113.42,227.8 121.52,255.61l-239.54 -2.31 118.01 -253.3zm282.44 616.08c39.25,16.48 49.82,157.03 140.2,212.49 97.15,59.61 205.04,12.94 248.9,-53.13 60.88,-91.72 2.19,-188.28 -36.1,-268.52 -37.41,-78.38 -72.82,-157.79 -110.55,-237.81 -105.44,-223.6 -237.3,-499.14 -336.53,-724.64 -35.89,-81.57 -83.11,-158.24 -193.88,-152.78 -51.29,2.53 -100.86,31.87 -123.11,55.75 -41.37,44.41 -241.96,503.54 -286.51,595.04 -73.9,151.77 -149.58,330.81 -222.99,479.13 -39.36,79.51 -87.21,169.74 -26.76,257.06 45.3,65.42 154.6,109.28 250.36,48.01 84.51,-54.07 102.28,-203.89 136.48,-210.59l560.49 0z"/>
  </g>
  <path class="fil0" d="M6320.97 2728.16c-67.73,57.67 -155.53,92.47 -251.43,92.47 -144.71,0 -270.95,-79.25 -337.69,-196.7l-49.73 87.76c-58.34,102.96 -190.11,139.4 -293.07,81.05 -97.8,-55.42 -135.58,-177.1 -89.1,-277.4 -98.97,-71.08 -161.98,-187.09 -161.98,-315.5 0,-214.31 173.81,-388.11 388.11,-388.11 144.71,0 270.96,79.25 337.69,196.71l49.73 -87.76c58.34,-102.96 190.12,-139.4 293.07,-81.06 97.8,55.42 135.58,177.11 89.11,277.4 79.8,57.31 136.22,143.84 155.08,242.52 18.06,-4.49 36.95,-6.88 56.38,-6.88l0.08 0c6.11,0 12.17,0.24 18.16,0.7 -20.41,-47.33 -31.64,-99.32 -31.64,-153.52 0,-214.31 173.81,-388.11 388.12,-388.11 106.17,0 202.38,42.65 272.47,111.75l0 -46.75c0,-2.21 0.03,-4.43 0.08,-6.65 0.06,-2.39 0.15,-4.78 0.28,-7.17 0.11,-2.14 0.24,-4.27 0.41,-6.4 0.17,-2.22 0.37,-4.44 0.59,-6.66 0.24,-2.34 0.51,-4.68 0.82,-7.01 0.28,-2.12 0.57,-4.24 0.89,-6.35 0.33,-2.15 0.69,-4.31 1.07,-6.46 0.37,-2.1 0.78,-4.2 1.21,-6.29 0.47,-2.3 0.97,-4.59 1.5,-6.87 0.5,-2.14 1.02,-4.27 1.57,-6.39 0.57,-2.19 1.16,-4.37 1.79,-6.55 0.54,-1.87 1.09,-3.74 1.66,-5.6 0.68,-2.19 1.39,-4.37 2.13,-6.54 0.7,-2.04 1.42,-4.08 2.16,-6.11 0.71,-1.94 1.45,-3.87 2.21,-5.79 0.82,-2.09 1.68,-4.17 2.55,-6.24 0.88,-2.07 1.78,-4.14 2.72,-6.19 0.88,-1.94 1.78,-3.87 2.71,-5.79 0.82,-1.7 1.67,-3.39 2.53,-5.07 1,-1.97 2.04,-3.93 3.09,-5.88 1.1,-2.04 2.24,-4.07 3.4,-6.08 7.42,-12.84 15.9,-25.06 25.35,-36.49 1.39,-1.68 2.8,-3.35 4.24,-5 1.35,-1.54 2.71,-3.07 4.08,-4.58 4.25,-4.66 8.65,-9.18 13.21,-13.53 1.48,-1.41 2.98,-2.81 4.49,-4.18 1.59,-1.45 3.2,-2.87 4.82,-4.28 3.27,-2.84 6.6,-5.6 10,-8.27 1.52,-1.19 3.06,-2.37 4.61,-3.54 1.66,-1.25 3.34,-2.47 5.04,-3.68 1.79,-1.29 3.6,-2.54 5.43,-3.78 1.76,-1.19 3.54,-2.36 5.32,-3.51 1.74,-1.12 3.49,-2.22 5.26,-3.3 1.96,-1.2 3.94,-2.38 5.94,-3.52 1.75,-1.01 3.51,-2 5.28,-2.96 1.98,-1.08 3.96,-2.14 5.97,-3.16 2.01,-1.03 4.02,-2.04 6.06,-3.01 1.66,-0.8 3.34,-1.59 5.02,-2.36 2.05,-0.93 4.11,-1.84 6.18,-2.72 1.92,-0.81 3.84,-1.6 5.77,-2.37 2.18,-0.87 4.37,-1.7 6.58,-2.51 1.97,-0.72 3.94,-1.43 5.93,-2.1 2.14,-0.73 4.3,-1.44 6.46,-2.11 2,-0.62 4.01,-1.22 6.02,-1.79 2.12,-0.61 4.24,-1.18 6.37,-1.74 2.06,-0.53 4.14,-1.04 6.21,-1.53 2.22,-0.51 4.45,-1.01 6.68,-1.47 2.11,-0.44 4.23,-0.83 6.35,-1.22 2.31,-0.42 4.64,-0.81 6.96,-1.16 2.05,-0.31 4.11,-0.6 6.16,-0.86 2.22,-0.29 4.45,-0.55 6.68,-0.78 2.3,-0.24 4.6,-0.44 6.91,-0.61 2.21,-0.17 4.44,-0.32 6.66,-0.43 2.22,-0.11 4.44,-0.2 6.66,-0.26 2.3,-0.06 4.61,-0.09 6.91,-0.09l568.19 0c75.58,0 143.92,31.9 192.27,82.92 39.73,-35.42 89.74,-59.03 143.44,-66.04 149.89,-19.56 229.94,85.57 323.43,178.01l92.53 91.5 129.68 -129.69c30.15,-30.15 57.91,-63.24 92.98,-88 124.78,-88.14 290.75,-66.52 378.21,60.49 66.32,96.3 46.69,235.07 46.69,346.11 0,196.69 -0,393.38 0,590.06 0,70.98 3.75,127.86 -33.22,193.42 -61.41,108.89 -182.03,158.27 -302.02,124.39 -107.24,-30.3 -193.59,-123.68 -191.32,-238.58l-0.01 -246.74c-51.82,27.71 -117.62,34.72 -172.86,24.35 -24.5,-4.6 -46.47,-12.74 -66.66,-23.39 0.19,24.83 0.34,49.66 0.34,74.48 0,63.97 5.1,128.6 -5.3,192.08 -15.45,94.38 -64.93,168.56 -154.76,206.88 -80.79,34.47 -174.03,28.36 -247.81,-19.89 -83.51,-54.6 -121.98,-147.63 -121.97,-245.1l0.02 -598.41c-31.87,13.62 -66.91,21.16 -103.67,21.16l-19.04 0c47.15,47.88 76.3,113.52 76.3,185.79 0,146 -119.01,265.01 -265.01,265.01l-95.43 0 0 163.08c0,146 -119.01,265 -265,265 -146,0 -265.01,-119.01 -265.01,-265l0 -249.4 -116.44 205.46c-58.34,102.96 -190.11,139.4 -293.06,81.05 -24.32,-13.78 -44.94,-31.67 -61.47,-52.31 -42.93,49.11 -106,80.19 -176.14,80.19l-0.08 0c-75.82,0 -143.37,-36.32 -186.18,-92.47z"/>
  <g id="_3268007876976">
   <g>
    <path class="fil1" d="M7280.84 1876.75l0 -0 0 -0.01c0,-1.19 0.02,-2.37 0.05,-3.55l0 -0.01c0.03,-1.18 0.07,-2.36 0.14,-3.53l0 -0.01c0.06,-1.17 0.14,-2.34 0.23,-3.51l0 -0.01c0.09,-1.16 0.19,-2.32 0.31,-3.48l0 -0.01c0.12,-1.16 0.25,-2.31 0.4,-3.46l0 -0.01c0.15,-1.15 0.31,-2.29 0.48,-3.43l0 -0.01c0.18,-1.14 0.37,-2.28 0.57,-3.41l0 -0c0.2,-1.13 0.42,-2.25 0.65,-3.38l0 -0.01c0.23,-1.12 0.48,-2.24 0.74,-3.35l0 -0.01c0.26,-1.11 0.53,-2.21 0.82,-3.31l0 -0.01c0.29,-1.1 0.59,-2.2 0.9,-3.29l0 -0.01c0.31,-1.09 0.64,-2.18 0.98,-3.26l0 -0.01c0.33,-1.08 0.69,-2.15 1.05,-3.22l0 -0.01c0.36,-1.07 0.74,-2.13 1.13,-3.19l0 -0.01c0.39,-1.05 0.8,-2.1 1.21,-3.15l0 -0.01c0.41,-1.04 0.84,-2.08 1.28,-3.11l0 -0.01c0.44,-1.03 0.89,-2.06 1.35,-3.08l0 -0.01c0.46,-1.02 0.94,-2.03 1.43,-3.04l0 -0c0.49,-1.01 0.99,-2 1.5,-3l0 -0.01c0.51,-0.99 1.04,-1.97 1.57,-2.95l0 -0.01c0.53,-0.98 1.08,-1.95 1.63,-2.92 3.9,-6.76 8.36,-13.17 13.31,-19.16l0 -0c0.71,-0.86 1.42,-1.69 2.15,-2.54l0 -0c0.73,-0.83 1.46,-1.66 2.21,-2.48l0 -0c2.24,-2.46 4.57,-4.84 6.97,-7.14l0 -0c0.8,-0.77 1.62,-1.51 2.44,-2.26l0 -0c0.82,-0.74 1.65,-1.48 2.49,-2.21l0 -0c1.68,-1.45 3.38,-2.86 5.13,-4.24l0 0c0.88,-0.68 1.75,-1.36 2.64,-2.03 0.89,-0.67 1.78,-1.32 2.69,-1.97l0 -0c0.9,-0.65 1.82,-1.27 2.74,-1.9l0 -0c0.92,-0.62 1.85,-1.23 2.78,-1.83l0 -0c0.94,-0.6 1.88,-1.19 2.83,-1.77l0 -0c0.95,-0.58 1.91,-1.15 2.87,-1.7 0.97,-0.56 1.94,-1.1 2.92,-1.64l0 -0c0.98,-0.53 1.97,-1.05 2.96,-1.56 0.99,-0.51 2,-1.01 3,-1.5l0 0c1.01,-0.49 2.02,-0.96 3.04,-1.42l0 -0c1.02,-0.47 2.05,-0.91 3.09,-1.35l0 -0c1.03,-0.44 2.07,-0.86 3.12,-1.28l0 -0c1.05,-0.41 2.1,-0.82 3.16,-1.2l0 -0c1.06,-0.39 2.13,-0.77 3.19,-1.13 1.07,-0.36 2.15,-0.71 3.23,-1.05l0 -0c1.08,-0.34 2.17,-0.66 3.26,-0.97l0 0c1.09,-0.31 2.19,-0.61 3.29,-0.9l0 -0c1.1,-0.28 2.21,-0.55 3.32,-0.81 1.12,-0.26 2.23,-0.5 3.36,-0.74l0 0c1.12,-0.23 2.25,-0.45 3.38,-0.65 1.13,-0.2 2.27,-0.39 3.41,-0.57l0 0c1.14,-0.18 2.28,-0.34 3.43,-0.48l0 0c1.15,-0.15 2.3,-0.28 3.46,-0.4l0.01 0c1.16,-0.12 2.32,-0.22 3.48,-0.31l0.01 0c1.16,-0.09 2.33,-0.17 3.51,-0.23l0.01 0c1.17,-0.06 2.35,-0.11 3.53,-0.14l0.01 0c1.18,-0.03 2.36,-0.05 3.55,-0.05l0.01 0 0 0 568.18 0c76.12,0 138.41,62.29 138.41,138.42l0 0c0,76.14 -62.3,138.43 -138.41,138.43l-429.76 0 0 173.95 222.01 0c76.14,0 138.43,62.29 138.43,138.42l0 0c0,76.14 -62.29,138.43 -138.43,138.43l-222.01 0 0 289.67c0,76.14 -62.29,138.42 -138.42,138.42l-0 0c-76.13,0 -138.42,-62.28 -138.42,-138.42l0 -878.89z"/>
    <g style="clip-path:url(#id53)">
     <g>
      <path id="_1_6" class="fil2" style="mask:url(#id54)" d="M7419.26 1738.32l0 0c76.13,0 138.42,62.29 138.42,138.43l0 693.04 -276.85 0 0 -693.04c0,-76.13 62.29,-138.43 138.42,-138.43z"/>
      <path class="fil2" style="mask:url(#id56)" d="M8125.86 1876.75l0 -0c0,-76.14 -62.29,-138.42 -138.43,-138.42l-693.04 0 0 276.85 693.04 0c76.13,0 138.43,-62.29 138.43,-138.42z"/>
     </g>
    </g>
    <path class="fil3" d="M7280.84 1876.75l0 -0 0 -0.01c0,-1.19 0.02,-2.37 0.05,-3.55l0 -0.01c0.03,-1.18 0.07,-2.36 0.14,-3.53l0 -0.01c0.06,-1.17 0.14,-2.34 0.23,-3.51l0 -0.01c0.09,-1.16 0.19,-2.32 0.31,-3.48l0 -0.01c0.12,-1.16 0.25,-2.31 0.4,-3.46l0 -0.01c0.15,-1.15 0.31,-2.29 0.48,-3.43l0 -0.01c0.18,-1.14 0.37,-2.28 0.57,-3.41l0 -0c0.2,-1.13 0.42,-2.25 0.65,-3.38l0 -0.01c0.23,-1.12 0.48,-2.24 0.74,-3.35l0 -0.01c0.26,-1.11 0.53,-2.21 0.82,-3.31l0 -0.01c0.29,-1.1 0.59,-2.2 0.9,-3.29l0 -0.01c0.31,-1.09 0.64,-2.18 0.98,-3.26l0 -0.01c0.33,-1.08 0.69,-2.15 1.05,-3.22l0 -0.01c0.36,-1.07 0.74,-2.13 1.13,-3.19l0 -0.01c0.39,-1.05 0.8,-2.1 1.21,-3.15l0 -0.01c0.41,-1.04 0.84,-2.08 1.28,-3.11l0 -0.01c0.44,-1.03 0.89,-2.06 1.35,-3.08l0 -0.01c0.46,-1.02 0.94,-2.03 1.43,-3.04l0 -0c0.49,-1.01 0.99,-2 1.5,-3l0 -0.01c0.51,-0.99 1.04,-1.97 1.57,-2.95l0 -0.01c0.53,-0.98 1.08,-1.95 1.63,-2.92 3.9,-6.76 8.36,-13.17 13.31,-19.16l0 -0c0.71,-0.86 1.42,-1.69 2.15,-2.54l0 -0c0.73,-0.83 1.46,-1.66 2.21,-2.48l0 -0c2.24,-2.46 4.57,-4.84 6.97,-7.14l0 -0c0.8,-0.77 1.62,-1.51 2.44,-2.26l0 -0c0.82,-0.74 1.65,-1.48 2.49,-2.21l0 -0c1.68,-1.45 3.38,-2.86 5.13,-4.24l0 0c0.88,-0.68 1.75,-1.36 2.64,-2.03 0.89,-0.67 1.78,-1.32 2.69,-1.97l0 -0c0.9,-0.65 1.82,-1.27 2.74,-1.9l0 -0c0.92,-0.62 1.85,-1.23 2.78,-1.83l0 -0c0.94,-0.6 1.88,-1.19 2.83,-1.77l0 -0c0.95,-0.58 1.91,-1.15 2.87,-1.7 0.97,-0.56 1.94,-1.1 2.92,-1.64l0 -0c0.98,-0.53 1.97,-1.05 2.96,-1.56 0.99,-0.51 2,-1.01 3,-1.5l0 0c1.01,-0.49 2.02,-0.96 3.04,-1.42l0 -0c1.02,-0.47 2.05,-0.91 3.09,-1.35l0 -0c1.03,-0.44 2.07,-0.86 3.12,-1.28l0 -0c1.05,-0.41 2.1,-0.82 3.16,-1.2l0 -0c1.06,-0.39 2.13,-0.77 3.19,-1.13 1.07,-0.36 2.15,-0.71 3.23,-1.05l0 -0c1.08,-0.34 2.17,-0.66 3.26,-0.97l0 0c1.09,-0.31 2.19,-0.61 3.29,-0.9l0 -0c1.1,-0.28 2.21,-0.55 3.32,-0.81 1.12,-0.26 2.23,-0.5 3.36,-0.74l0 0c1.12,-0.23 2.25,-0.45 3.38,-0.65 1.13,-0.2 2.27,-0.39 3.41,-0.57l0 0c1.14,-0.18 2.28,-0.34 3.43,-0.48l0 0c1.15,-0.15 2.3,-0.28 3.46,-0.4l0.01 0c1.16,-0.12 2.32,-0.22 3.48,-0.31l0.01 0c1.16,-0.09 2.33,-0.17 3.51,-0.23l0.01 0c1.17,-0.06 2.35,-0.11 3.53,-0.14l0.01 0c1.18,-0.03 2.36,-0.05 3.55,-0.05l0.01 0 0 0 568.18 0c76.12,0 138.41,62.29 138.41,138.42l0 0c0,76.14 -62.3,138.43 -138.41,138.43l-429.76 0 0 173.95 222.01 0c76.14,0 138.43,62.29 138.43,138.42l0 0c0,76.14 -62.29,138.43 -138.43,138.43l-222.01 0 0 289.67c0,76.14 -62.29,138.42 -138.42,138.42l-0 0c-76.13,0 -138.42,-62.28 -138.42,-138.42l0 -878.89z"/>
    <path class="fil1" d="M8814.98 2387.25c5.76,-6.84 0.53,-2.07 7.67,-7.65 38.95,-30.42 42.96,-38.03 80.1,-75.04 14.54,-14.48 68.85,-73.58 83.93,-78.84l0.03 532.1c-3.22,108.12 182.11,182.4 256.49,50.51 21.66,-38.41 16.88,-83.72 16.88,-131.23 -0,-196.69 0,-393.38 0,-590.07 0,-79.27 15.15,-216.93 -24.36,-274.31 -41.85,-60.78 -125.19,-82.39 -200.93,-28.89 -22.7,16.04 -54.93,52.62 -76.48,74.11l-218.69 218.71 -182.04 -180.02c-68.17,-68.12 -129.8,-154.01 -218.04,-142.5 -51.47,6.72 -89.69,41.02 -107.56,76.42 -21.97,43.52 -14.27,112.03 -14.27,164.41l-0.03 724.04c-0.16,136.48 107.95,185.07 193.53,148.56 101.17,-43.17 83.14,-158.4 83.14,-282.53 0,-70.35 -3.47,-306.97 0.79,-357.63 21.9,17.5 44.64,42.93 65.49,63.74 43.57,43.49 95.72,108.2 149.97,118.38 34.73,6.52 84.78,-0.91 104.38,-22.28z"/>
    <g style="clip-path:url(#id58)">
     <g>
      <path id="_1_7" class="fil2" style="mask:url(#id59)" d="M8356.02 1753.09l0 0c76.09,0 138.33,62.24 138.33,138.33l0 692.58 -276.66 0 0 -692.58c0,-76.1 62.24,-138.33 138.33,-138.33z"/>
      <path class="fil2" style="mask:url(#id61)" d="M8838.31 2369.95l-0.01 0.01c-53.82,54.42 -142.37,54.92 -196.8,1.09l-495.42 -489.91 195.71 -197.91 495.43 489.92c54.43,53.83 54.92,142.38 1.1,196.8z"/>
      <path class="fil2" style="mask:url(#id63)" d="M9218.36 1791.87l0 0c54.46,53.79 55.01,142.34 1.22,196.8l-489.61 495.73 -198.03 -195.58 489.61 -495.73c53.79,-54.47 142.35,-55.01 196.81,-1.23z"/>
      <path class="fil2" style="mask:url(#id65)" d="M9121.75 2879.29l0 0c76.09,0 138.33,-62.24 138.33,-138.33l0 -692.58 -276.66 0 0 692.58c0,76.1 62.24,138.33 138.33,138.33z"/>
     </g>
    </g>
    <path class="fil3" d="M8814.98 2387.25c5.76,-6.84 0.53,-2.07 7.67,-7.65 38.95,-30.42 42.96,-38.03 80.1,-75.04 14.54,-14.48 68.85,-73.58 83.93,-78.84l0.03 532.1c-3.22,108.12 182.11,182.4 256.49,50.51 21.66,-38.41 16.88,-83.72 16.88,-131.23 -0,-196.69 0,-393.38 0,-590.07 0,-79.27 15.15,-216.93 -24.36,-274.31 -41.85,-60.78 -125.19,-82.39 -200.93,-28.89 -22.7,16.04 -54.93,52.62 -76.48,74.11l-218.69 218.71 -182.04 -180.02c-68.17,-68.12 -129.8,-154.01 -218.04,-142.5 -51.47,6.72 -89.69,41.02 -107.56,76.42 -21.97,43.52 -14.27,112.03 -14.27,164.41l-0.03 724.04c-0.16,136.48 107.95,185.07 193.53,148.56 101.17,-43.17 83.14,-158.4 83.14,-282.53 0,-70.35 -3.47,-306.97 0.79,-357.63 21.9,17.5 44.64,42.93 65.49,63.74 43.57,43.49 95.72,108.2 149.97,118.38 34.73,6.52 84.78,-0.91 104.38,-22.28z"/>
   </g>
   <g>
    <ellipse class="fil3" transform="matrix(0.165301 0.0936774 -0.100849 0.177956 5526.01 2199.85)" rx="445.69" ry="413.99"/>
    <path class="fil1" d="M5526.01 1938.33c144.43,0 261.52,117.09 261.52,261.52 0,45.06 -11.4,87.46 -31.46,124.46l0 0 -0.05 0.09c-1.38,2.54 -2.81,5.04 -4.27,7.52l-111.18 196.19 -68.67 121.17c-23.98,42.31 -78.21,57.31 -120.52,33.33l-0 0c-42.31,-23.98 -57.31,-78.21 -33.33,-120.53l59.61 -105.19c-121.34,-22.68 -213.18,-129.13 -213.18,-257.05 0,-144.43 117.09,-261.52 261.53,-261.52zm41.75 187.85c40.69,23.06 54.98,74.73 31.92,115.42 -23.06,40.69 -74.73,54.98 -115.42,31.92 -40.69,-23.06 -54.98,-74.73 -31.92,-115.42 23.06,-40.69 74.73,-54.98 115.42,-31.92z"/>
    <g style="clip-path:url(#id67)">
     <g>
      <path id="_1_8" class="fil2" style="mask:url(#id68)" d="M5442.46 2698.36l0 0c-42.31,-23.98 -57.31,-78.21 -33.33,-120.53l192.54 -339.75 -178.54 -179.4 237.02 -225.38 325.52 127.96 -242.44 385.71 -180.24 318.05c-23.98,42.31 -86.14,67.72 -120.53,33.33z"/>
      <path class="fil2" style="mask:url(#id70)" d="M5419.74 2036.72l0.01 0c42.31,23.98 57.3,78.21 33.32,120.52l123.49 55.65 116.95 69.21 -84.73 173.03 -218.38 26.26c0,0 -62.33,-26.4 -97.32,-41.84l-62.43 110.17 -153.86 -87.19 222.43 -392.49c23.98,-42.31 78.21,-57.31 120.52,-33.33z"/>
     </g>
    </g>
    <path class="fil3" d="M5526.01 1938.33c144.43,0 261.52,117.09 261.52,261.52 0,45.06 -11.4,87.46 -31.46,124.46l0 0 -0.05 0.09c-1.38,2.54 -2.81,5.04 -4.27,7.52l-111.18 196.19 -68.67 121.17c-23.98,42.31 -78.21,57.31 -120.52,33.33l-0 0c-42.31,-23.98 -57.31,-78.21 -33.33,-120.53l59.61 -105.19c-121.34,-22.68 -213.18,-129.13 -213.18,-257.05 0,-144.43 117.09,-261.52 261.53,-261.52zm41.75 187.85c40.69,23.06 54.98,74.73 31.92,115.42 -23.06,40.69 -74.73,54.98 -115.42,31.92 -40.69,-23.06 -54.98,-74.73 -31.92,-115.42 23.06,-40.69 74.73,-54.98 115.42,-31.92z"/>
    <rect class="fil1" transform="matrix(-2.53342E-14 -0.964081 0.373097 -9.1043E-14 6399.68 2694.05)" width="222.8" height="575.89" rx="111.4" ry="111.4"/>
    <path class="fil1" d="M6881.79 1938.33c144.43,0 261.52,117.09 261.52,261.52 0,45.06 -11.4,87.46 -31.46,124.46l0 0 -0.05 0.09c-1.38,2.54 -2.81,5.04 -4.27,7.52l-111.18 196.19 -68.67 121.17c-23.98,42.31 -78.21,57.31 -120.52,33.33l-0 0c-42.31,-23.98 -57.31,-78.21 -33.33,-120.53l59.61 -105.19c-121.34,-22.68 -213.19,-129.13 -213.19,-257.05 0,-144.43 117.09,-261.52 261.53,-261.52zm41.75 187.85c40.69,23.06 54.98,74.73 31.92,115.42 -23.06,40.69 -74.73,54.98 -115.42,31.92 -40.69,-23.06 -54.98,-74.73 -31.92,-115.42 23.06,-40.69 74.73,-54.98 115.42,-31.92z"/>
    <g style="clip-path:url(#id72)">
     <g>
      <path id="_1_9" class="fil2" style="mask:url(#id73)" d="M6798.24 2698.36l0 0c-42.31,-23.98 -57.31,-78.21 -33.33,-120.53l192.54 -339.75 -178.54 -179.4 237.01 -225.38 325.52 127.96 -242.44 385.71 -180.24 318.05c-23.98,42.31 -86.14,67.72 -120.53,33.33z"/>
      <path class="fil2" style="mask:url(#id75)" d="M6775.52 2036.72l0 0c42.31,23.98 57.31,78.21 33.33,120.52l123.49 55.65 116.95 69.21 -84.73 173.03 -218.38 26.26c0,0 -62.33,-26.4 -97.32,-41.84l-62.43 110.17 -153.86 -87.19 222.43 -392.49c23.98,-42.31 78.21,-57.31 120.52,-33.33z"/>
     </g>
    </g>
    <path class="fil3" d="M6881.79 1938.33c144.43,0 261.52,117.09 261.52,261.52 0,45.06 -11.4,87.46 -31.46,124.46l0 0 -0.05 0.09c-1.38,2.54 -2.81,5.04 -4.27,7.52l-111.18 196.19 -68.67 121.17c-23.98,42.31 -78.21,57.31 -120.52,33.33l-0 0c-42.31,-23.98 -57.31,-78.21 -33.33,-120.53l59.61 -105.19c-121.34,-22.68 -213.19,-129.13 -213.19,-257.05 0,-144.43 117.09,-261.52 261.53,-261.52zm41.75 187.85c40.69,23.06 54.98,74.73 31.92,115.42 -23.06,40.69 -74.73,54.98 -115.42,31.92 -40.69,-23.06 -54.98,-74.73 -31.92,-115.42 23.06,-40.69 74.73,-54.98 115.42,-31.92z"/>
    <path class="fil1" d="M6069.47 2694.05c-144.43,0 -261.52,-117.09 -261.52,-261.52 0,-45.06 11.4,-87.46 31.46,-124.46l0 -0 0.05 -0.09c1.38,-2.54 2.81,-5.04 4.27,-7.52l111.18 -196.19 68.67 -121.17c23.98,-42.31 78.21,-57.31 120.52,-33.33l0 0c42.31,23.98 57.31,78.21 33.33,120.52l-59.61 105.19c121.34,22.68 213.18,129.13 213.18,257.05 0,144.43 -117.09,261.52 -261.53,261.52zm-41.75 -187.86c-40.69,-23.06 -54.98,-74.73 -31.92,-115.42 23.06,-40.69 74.73,-54.98 115.42,-31.92 40.69,23.06 54.98,74.73 31.92,115.42 -23.06,40.69 -74.73,54.98 -115.42,31.92z"/>
    <g style="clip-path:url(#id77)">
     <g>
      <path id="_1_10" class="fil2" style="mask:url(#id78)" d="M6153.01 1934.01l0 0.01c42.31,23.97 57.31,78.21 33.33,120.52l-192.54 339.75 178.54 179.4 -237.01 225.39 -325.52 -127.96 242.44 -385.71 180.24 -318.05c23.98,-42.31 86.14,-67.72 120.53,-33.34z"/>
      <path class="fil2" style="mask:url(#id80)" d="M6175.74 2595.66l-0 -0c-42.31,-23.97 -57.31,-78.21 -33.33,-120.52l-123.49 -55.65 -116.95 -69.21 84.73 -173.03 218.38 -26.26c0,0 62.33,26.41 97.32,41.84l62.43 -110.16 153.86 87.19 -222.42 392.49c-23.98,42.31 -78.21,57.31 -120.52,33.34z"/>
     </g>
    </g>
    <path class="fil3" d="M6069.47 2694.05c-144.43,0 -261.52,-117.09 -261.52,-261.52 0,-45.06 11.4,-87.46 31.46,-124.46l0 -0 0.05 -0.09c1.38,-2.54 2.81,-5.04 4.27,-7.52l111.18 -196.19 68.67 -121.17c23.98,-42.31 78.21,-57.31 120.52,-33.33l0 0c42.31,23.98 57.31,78.21 33.33,120.52l-59.61 105.19c121.34,22.68 213.18,129.13 213.18,257.05 0,144.43 -117.09,261.52 -261.53,261.52zm-41.75 -187.86c-40.69,-23.06 -54.98,-74.73 -31.92,-115.42 23.06,-40.69 74.73,-54.98 115.42,-31.92 40.69,23.06 54.98,74.73 31.92,115.42 -23.06,40.69 -74.73,54.98 -115.42,31.92z"/>
   </g>
  </g>
 </g>
</svg>
